<mxfile host="app.diagrams.net" agent="Mozilla/5.0 (Windows NT 10.0; Win64; x64) AppleWebKit/537.36 (KHTML, like Gecko) Chrome/134.0.0.0 Safari/537.36" version="26.1.1">
  <diagram id="C5RBs43oDa-KdzZeNtuy" name="Page-1">
    <mxGraphModel dx="2327" dy="883" grid="1" gridSize="10" guides="1" tooltips="1" connect="1" arrows="1" fold="1" page="1" pageScale="1" pageWidth="827" pageHeight="1169" math="0" shadow="0">
      <root>
        <mxCell id="WIyWlLk6GJQsqaUBKTNV-0" />
        <mxCell id="WIyWlLk6GJQsqaUBKTNV-1" parent="WIyWlLk6GJQsqaUBKTNV-0" />
        <mxCell id="WIyWlLk6GJQsqaUBKTNV-2" value="" style="rounded=0;html=1;jettySize=auto;orthogonalLoop=1;fontSize=11;endArrow=block;endFill=0;endSize=8;strokeWidth=1;shadow=0;labelBackgroundColor=none;edgeStyle=orthogonalEdgeStyle;" parent="WIyWlLk6GJQsqaUBKTNV-1" source="WIyWlLk6GJQsqaUBKTNV-3" target="WIyWlLk6GJQsqaUBKTNV-6" edge="1">
          <mxGeometry relative="1" as="geometry" />
        </mxCell>
        <mxCell id="WIyWlLk6GJQsqaUBKTNV-3" value="Inicio" style="rounded=1;whiteSpace=wrap;html=1;fontSize=12;glass=0;strokeWidth=1;shadow=0;" parent="WIyWlLk6GJQsqaUBKTNV-1" vertex="1">
          <mxGeometry x="340" y="30" width="120" height="40" as="geometry" />
        </mxCell>
        <mxCell id="n7Tfx3wBglvD5KZtqvA7-5" value="" style="edgeStyle=orthogonalEdgeStyle;rounded=0;orthogonalLoop=1;jettySize=auto;html=1;" edge="1" parent="WIyWlLk6GJQsqaUBKTNV-1" source="WIyWlLk6GJQsqaUBKTNV-6" target="n7Tfx3wBglvD5KZtqvA7-4">
          <mxGeometry relative="1" as="geometry" />
        </mxCell>
        <mxCell id="WIyWlLk6GJQsqaUBKTNV-6" value="Crear Directorios" style="rhombus;whiteSpace=wrap;html=1;shadow=0;fontFamily=Helvetica;fontSize=12;align=center;strokeWidth=1;spacing=6;spacingTop=-4;" parent="WIyWlLk6GJQsqaUBKTNV-1" vertex="1">
          <mxGeometry x="314" y="80" width="100" height="80" as="geometry" />
        </mxCell>
        <mxCell id="n7Tfx3wBglvD5KZtqvA7-15" value="" style="edgeStyle=orthogonalEdgeStyle;rounded=0;orthogonalLoop=1;jettySize=auto;html=1;" edge="1" parent="WIyWlLk6GJQsqaUBKTNV-1" source="n7Tfx3wBglvD5KZtqvA7-4" target="n7Tfx3wBglvD5KZtqvA7-14">
          <mxGeometry relative="1" as="geometry" />
        </mxCell>
        <mxCell id="n7Tfx3wBglvD5KZtqvA7-35" value="" style="edgeStyle=orthogonalEdgeStyle;rounded=0;orthogonalLoop=1;jettySize=auto;html=1;" edge="1" parent="WIyWlLk6GJQsqaUBKTNV-1" source="n7Tfx3wBglvD5KZtqvA7-4" target="n7Tfx3wBglvD5KZtqvA7-34">
          <mxGeometry relative="1" as="geometry" />
        </mxCell>
        <mxCell id="n7Tfx3wBglvD5KZtqvA7-45" value="" style="edgeStyle=orthogonalEdgeStyle;rounded=0;orthogonalLoop=1;jettySize=auto;html=1;" edge="1" parent="WIyWlLk6GJQsqaUBKTNV-1" source="n7Tfx3wBglvD5KZtqvA7-4" target="n7Tfx3wBglvD5KZtqvA7-44">
          <mxGeometry relative="1" as="geometry" />
        </mxCell>
        <mxCell id="n7Tfx3wBglvD5KZtqvA7-82" value="" style="edgeStyle=orthogonalEdgeStyle;rounded=0;orthogonalLoop=1;jettySize=auto;html=1;" edge="1" parent="WIyWlLk6GJQsqaUBKTNV-1" source="n7Tfx3wBglvD5KZtqvA7-4" target="n7Tfx3wBglvD5KZtqvA7-34">
          <mxGeometry relative="1" as="geometry" />
        </mxCell>
        <mxCell id="n7Tfx3wBglvD5KZtqvA7-4" value="Data_Raw" style="shape=parallelogram;perimeter=parallelogramPerimeter;whiteSpace=wrap;html=1;fixedSize=1;" vertex="1" parent="WIyWlLk6GJQsqaUBKTNV-1">
          <mxGeometry x="130" y="200" width="120" height="60" as="geometry" />
        </mxCell>
        <mxCell id="n7Tfx3wBglvD5KZtqvA7-17" value="" style="edgeStyle=orthogonalEdgeStyle;rounded=0;orthogonalLoop=1;jettySize=auto;html=1;" edge="1" parent="WIyWlLk6GJQsqaUBKTNV-1" source="n7Tfx3wBglvD5KZtqvA7-14" target="n7Tfx3wBglvD5KZtqvA7-16">
          <mxGeometry relative="1" as="geometry" />
        </mxCell>
        <mxCell id="n7Tfx3wBglvD5KZtqvA7-52" value="" style="edgeStyle=orthogonalEdgeStyle;rounded=0;orthogonalLoop=1;jettySize=auto;html=1;" edge="1" parent="WIyWlLk6GJQsqaUBKTNV-1" source="n7Tfx3wBglvD5KZtqvA7-14" target="n7Tfx3wBglvD5KZtqvA7-51">
          <mxGeometry relative="1" as="geometry" />
        </mxCell>
        <mxCell id="n7Tfx3wBglvD5KZtqvA7-58" value="" style="edgeStyle=orthogonalEdgeStyle;rounded=0;orthogonalLoop=1;jettySize=auto;html=1;" edge="1" parent="WIyWlLk6GJQsqaUBKTNV-1" source="n7Tfx3wBglvD5KZtqvA7-14" target="n7Tfx3wBglvD5KZtqvA7-53">
          <mxGeometry relative="1" as="geometry" />
        </mxCell>
        <mxCell id="n7Tfx3wBglvD5KZtqvA7-81" value="" style="edgeStyle=orthogonalEdgeStyle;rounded=0;orthogonalLoop=1;jettySize=auto;html=1;" edge="1" parent="WIyWlLk6GJQsqaUBKTNV-1" source="n7Tfx3wBglvD5KZtqvA7-14" target="n7Tfx3wBglvD5KZtqvA7-80">
          <mxGeometry relative="1" as="geometry" />
        </mxCell>
        <mxCell id="n7Tfx3wBglvD5KZtqvA7-14" value="Data_Clean" style="shape=parallelogram;perimeter=parallelogramPerimeter;whiteSpace=wrap;html=1;fixedSize=1;" vertex="1" parent="WIyWlLk6GJQsqaUBKTNV-1">
          <mxGeometry x="130" y="360" width="120" height="50" as="geometry" />
        </mxCell>
        <mxCell id="n7Tfx3wBglvD5KZtqvA7-19" value="" style="edgeStyle=orthogonalEdgeStyle;rounded=0;orthogonalLoop=1;jettySize=auto;html=1;" edge="1" parent="WIyWlLk6GJQsqaUBKTNV-1" source="n7Tfx3wBglvD5KZtqvA7-16" target="n7Tfx3wBglvD5KZtqvA7-18">
          <mxGeometry relative="1" as="geometry" />
        </mxCell>
        <mxCell id="n7Tfx3wBglvD5KZtqvA7-63" value="" style="edgeStyle=orthogonalEdgeStyle;rounded=0;orthogonalLoop=1;jettySize=auto;html=1;" edge="1" parent="WIyWlLk6GJQsqaUBKTNV-1" source="n7Tfx3wBglvD5KZtqvA7-16" target="n7Tfx3wBglvD5KZtqvA7-62">
          <mxGeometry relative="1" as="geometry">
            <Array as="points">
              <mxPoint x="70" y="555" />
            </Array>
          </mxGeometry>
        </mxCell>
        <mxCell id="n7Tfx3wBglvD5KZtqvA7-66" value="" style="edgeStyle=orthogonalEdgeStyle;rounded=0;orthogonalLoop=1;jettySize=auto;html=1;" edge="1" parent="WIyWlLk6GJQsqaUBKTNV-1" source="n7Tfx3wBglvD5KZtqvA7-16" target="n7Tfx3wBglvD5KZtqvA7-65">
          <mxGeometry relative="1" as="geometry" />
        </mxCell>
        <mxCell id="n7Tfx3wBglvD5KZtqvA7-16" value="Scr" style="shape=parallelogram;perimeter=parallelogramPerimeter;whiteSpace=wrap;html=1;fixedSize=1;" vertex="1" parent="WIyWlLk6GJQsqaUBKTNV-1">
          <mxGeometry x="130" y="525" width="120" height="60" as="geometry" />
        </mxCell>
        <mxCell id="n7Tfx3wBglvD5KZtqvA7-27" value="" style="edgeStyle=orthogonalEdgeStyle;rounded=0;orthogonalLoop=1;jettySize=auto;html=1;" edge="1" parent="WIyWlLk6GJQsqaUBKTNV-1" source="n7Tfx3wBglvD5KZtqvA7-18" target="n7Tfx3wBglvD5KZtqvA7-26">
          <mxGeometry relative="1" as="geometry" />
        </mxCell>
        <mxCell id="n7Tfx3wBglvD5KZtqvA7-18" value="Resultados" style="shape=parallelogram;perimeter=parallelogramPerimeter;whiteSpace=wrap;html=1;fixedSize=1;" vertex="1" parent="WIyWlLk6GJQsqaUBKTNV-1">
          <mxGeometry x="130" y="710" width="120" height="60" as="geometry" />
        </mxCell>
        <mxCell id="n7Tfx3wBglvD5KZtqvA7-26" value="Plots" style="rhombus;whiteSpace=wrap;html=1;" vertex="1" parent="WIyWlLk6GJQsqaUBKTNV-1">
          <mxGeometry x="340" y="640" width="60" height="60" as="geometry" />
        </mxCell>
        <mxCell id="n7Tfx3wBglvD5KZtqvA7-34" value="Código" style="shape=process;whiteSpace=wrap;html=1;backgroundOutline=1;" vertex="1" parent="WIyWlLk6GJQsqaUBKTNV-1">
          <mxGeometry x="40" y="200" width="80" height="20" as="geometry" />
        </mxCell>
        <mxCell id="n7Tfx3wBglvD5KZtqvA7-47" value="" style="edgeStyle=orthogonalEdgeStyle;rounded=0;orthogonalLoop=1;jettySize=auto;html=1;" edge="1" parent="WIyWlLk6GJQsqaUBKTNV-1" source="n7Tfx3wBglvD5KZtqvA7-44" target="n7Tfx3wBglvD5KZtqvA7-46">
          <mxGeometry relative="1" as="geometry" />
        </mxCell>
        <mxCell id="n7Tfx3wBglvD5KZtqvA7-44" value="Cargar datos brutos" style="shape=hexagon;perimeter=hexagonPerimeter2;whiteSpace=wrap;html=1;fixedSize=1;" vertex="1" parent="WIyWlLk6GJQsqaUBKTNV-1">
          <mxGeometry x="490" y="250" width="120" height="50" as="geometry" />
        </mxCell>
        <mxCell id="n7Tfx3wBglvD5KZtqvA7-49" value="" style="edgeStyle=orthogonalEdgeStyle;rounded=0;orthogonalLoop=1;jettySize=auto;html=1;" edge="1" parent="WIyWlLk6GJQsqaUBKTNV-1" source="n7Tfx3wBglvD5KZtqvA7-46" target="n7Tfx3wBglvD5KZtqvA7-48">
          <mxGeometry relative="1" as="geometry" />
        </mxCell>
        <mxCell id="n7Tfx3wBglvD5KZtqvA7-46" value="Validar integridad" style="shape=hexagon;perimeter=hexagonPerimeter2;whiteSpace=wrap;html=1;fixedSize=1;" vertex="1" parent="WIyWlLk6GJQsqaUBKTNV-1">
          <mxGeometry x="354" y="170" width="120" height="50" as="geometry" />
        </mxCell>
        <mxCell id="n7Tfx3wBglvD5KZtqvA7-48" value="respalda datos originales" style="shape=hexagon;perimeter=hexagonPerimeter2;whiteSpace=wrap;html=1;fixedSize=1;" vertex="1" parent="WIyWlLk6GJQsqaUBKTNV-1">
          <mxGeometry x="520" y="185" width="120" height="50" as="geometry" />
        </mxCell>
        <mxCell id="n7Tfx3wBglvD5KZtqvA7-51" value="Código" style="shape=process;whiteSpace=wrap;html=1;backgroundOutline=1;" vertex="1" parent="WIyWlLk6GJQsqaUBKTNV-1">
          <mxGeometry x="40" y="300" width="70" height="15" as="geometry" />
        </mxCell>
        <mxCell id="n7Tfx3wBglvD5KZtqvA7-59" value="" style="edgeStyle=orthogonalEdgeStyle;rounded=0;orthogonalLoop=1;jettySize=auto;html=1;" edge="1" parent="WIyWlLk6GJQsqaUBKTNV-1" source="n7Tfx3wBglvD5KZtqvA7-53" target="n7Tfx3wBglvD5KZtqvA7-55">
          <mxGeometry relative="1" as="geometry" />
        </mxCell>
        <mxCell id="n7Tfx3wBglvD5KZtqvA7-53" value="Revisar datos" style="shape=hexagon;perimeter=hexagonPerimeter2;whiteSpace=wrap;html=1;fixedSize=1;" vertex="1" parent="WIyWlLk6GJQsqaUBKTNV-1">
          <mxGeometry x="304" y="410" width="120" height="60" as="geometry" />
        </mxCell>
        <mxCell id="n7Tfx3wBglvD5KZtqvA7-60" value="" style="edgeStyle=orthogonalEdgeStyle;rounded=0;orthogonalLoop=1;jettySize=auto;html=1;" edge="1" parent="WIyWlLk6GJQsqaUBKTNV-1" source="n7Tfx3wBglvD5KZtqvA7-55" target="n7Tfx3wBglvD5KZtqvA7-57">
          <mxGeometry relative="1" as="geometry" />
        </mxCell>
        <mxCell id="n7Tfx3wBglvD5KZtqvA7-55" value="Imputar datos" style="shape=hexagon;perimeter=hexagonPerimeter2;whiteSpace=wrap;html=1;fixedSize=1;" vertex="1" parent="WIyWlLk6GJQsqaUBKTNV-1">
          <mxGeometry x="430" y="330" width="120" height="50" as="geometry" />
        </mxCell>
        <mxCell id="n7Tfx3wBglvD5KZtqvA7-56" value="Análisis Estadísticos" style="shape=hexagon;perimeter=hexagonPerimeter2;whiteSpace=wrap;html=1;fixedSize=1;" vertex="1" parent="WIyWlLk6GJQsqaUBKTNV-1">
          <mxGeometry x="570" y="330" width="120" height="50" as="geometry" />
        </mxCell>
        <mxCell id="n7Tfx3wBglvD5KZtqvA7-61" value="" style="edgeStyle=orthogonalEdgeStyle;rounded=0;orthogonalLoop=1;jettySize=auto;html=1;" edge="1" parent="WIyWlLk6GJQsqaUBKTNV-1" source="n7Tfx3wBglvD5KZtqvA7-57" target="n7Tfx3wBglvD5KZtqvA7-56">
          <mxGeometry relative="1" as="geometry" />
        </mxCell>
        <mxCell id="n7Tfx3wBglvD5KZtqvA7-57" value="Exportar Datos Limpios" style="shape=hexagon;perimeter=hexagonPerimeter2;whiteSpace=wrap;html=1;fixedSize=1;" vertex="1" parent="WIyWlLk6GJQsqaUBKTNV-1">
          <mxGeometry x="510" y="430" width="120" height="50" as="geometry" />
        </mxCell>
        <mxCell id="n7Tfx3wBglvD5KZtqvA7-62" value="Código" style="shape=process;whiteSpace=wrap;html=1;backgroundOutline=1;" vertex="1" parent="WIyWlLk6GJQsqaUBKTNV-1">
          <mxGeometry x="45" y="490" width="60" height="20" as="geometry" />
        </mxCell>
        <mxCell id="n7Tfx3wBglvD5KZtqvA7-68" value="" style="edgeStyle=orthogonalEdgeStyle;rounded=0;orthogonalLoop=1;jettySize=auto;html=1;" edge="1" parent="WIyWlLk6GJQsqaUBKTNV-1" source="n7Tfx3wBglvD5KZtqvA7-65" target="n7Tfx3wBglvD5KZtqvA7-67">
          <mxGeometry relative="1" as="geometry" />
        </mxCell>
        <mxCell id="n7Tfx3wBglvD5KZtqvA7-65" value="Construir Modelo" style="shape=hexagon;perimeter=hexagonPerimeter2;whiteSpace=wrap;html=1;fixedSize=1;" vertex="1" parent="WIyWlLk6GJQsqaUBKTNV-1">
          <mxGeometry x="304" y="525" width="120" height="60" as="geometry" />
        </mxCell>
        <mxCell id="n7Tfx3wBglvD5KZtqvA7-70" value="" style="edgeStyle=orthogonalEdgeStyle;rounded=0;orthogonalLoop=1;jettySize=auto;html=1;" edge="1" parent="WIyWlLk6GJQsqaUBKTNV-1" source="n7Tfx3wBglvD5KZtqvA7-67" target="n7Tfx3wBglvD5KZtqvA7-69">
          <mxGeometry relative="1" as="geometry" />
        </mxCell>
        <mxCell id="n7Tfx3wBglvD5KZtqvA7-67" value="Pruebas Modelo" style="shape=hexagon;perimeter=hexagonPerimeter2;whiteSpace=wrap;html=1;fixedSize=1;" vertex="1" parent="WIyWlLk6GJQsqaUBKTNV-1">
          <mxGeometry x="470" y="530" width="120" height="60" as="geometry" />
        </mxCell>
        <mxCell id="n7Tfx3wBglvD5KZtqvA7-72" value="" style="edgeStyle=orthogonalEdgeStyle;rounded=0;orthogonalLoop=1;jettySize=auto;html=1;" edge="1" parent="WIyWlLk6GJQsqaUBKTNV-1" source="n7Tfx3wBglvD5KZtqvA7-69" target="n7Tfx3wBglvD5KZtqvA7-71">
          <mxGeometry relative="1" as="geometry" />
        </mxCell>
        <mxCell id="n7Tfx3wBglvD5KZtqvA7-74" value="" style="edgeStyle=orthogonalEdgeStyle;rounded=0;orthogonalLoop=1;jettySize=auto;html=1;" edge="1" parent="WIyWlLk6GJQsqaUBKTNV-1" source="n7Tfx3wBglvD5KZtqvA7-69" target="n7Tfx3wBglvD5KZtqvA7-73">
          <mxGeometry relative="1" as="geometry" />
        </mxCell>
        <mxCell id="n7Tfx3wBglvD5KZtqvA7-76" value="" style="edgeStyle=orthogonalEdgeStyle;rounded=0;orthogonalLoop=1;jettySize=auto;html=1;" edge="1" parent="WIyWlLk6GJQsqaUBKTNV-1" source="n7Tfx3wBglvD5KZtqvA7-69" target="n7Tfx3wBglvD5KZtqvA7-71">
          <mxGeometry relative="1" as="geometry" />
        </mxCell>
        <mxCell id="n7Tfx3wBglvD5KZtqvA7-77" value="" style="edgeStyle=orthogonalEdgeStyle;rounded=0;orthogonalLoop=1;jettySize=auto;html=1;" edge="1" parent="WIyWlLk6GJQsqaUBKTNV-1" source="n7Tfx3wBglvD5KZtqvA7-69" target="n7Tfx3wBglvD5KZtqvA7-75">
          <mxGeometry relative="1" as="geometry" />
        </mxCell>
        <mxCell id="n7Tfx3wBglvD5KZtqvA7-69" value="Revisión Código" style="shape=hexagon;perimeter=hexagonPerimeter2;whiteSpace=wrap;html=1;fixedSize=1;" vertex="1" parent="WIyWlLk6GJQsqaUBKTNV-1">
          <mxGeometry x="630" y="525" width="120" height="60" as="geometry" />
        </mxCell>
        <mxCell id="n7Tfx3wBglvD5KZtqvA7-87" value="" style="edgeStyle=orthogonalEdgeStyle;rounded=0;orthogonalLoop=1;jettySize=auto;html=1;entryX=1;entryY=0.5;entryDx=0;entryDy=0;exitX=1;exitY=0.5;exitDx=0;exitDy=0;" edge="1" parent="WIyWlLk6GJQsqaUBKTNV-1" source="n7Tfx3wBglvD5KZtqvA7-71" target="n7Tfx3wBglvD5KZtqvA7-73">
          <mxGeometry relative="1" as="geometry">
            <mxPoint x="879.9966666666666" y="550" as="sourcePoint" />
            <mxPoint x="926.33" y="450" as="targetPoint" />
            <Array as="points">
              <mxPoint x="1033" y="670" />
              <mxPoint x="1033" y="440" />
            </Array>
          </mxGeometry>
        </mxCell>
        <mxCell id="n7Tfx3wBglvD5KZtqvA7-71" value="Documentar código" style="shape=hexagon;perimeter=hexagonPerimeter2;whiteSpace=wrap;html=1;fixedSize=1;" vertex="1" parent="WIyWlLk6GJQsqaUBKTNV-1">
          <mxGeometry x="707" y="640" width="120" height="60" as="geometry" />
        </mxCell>
        <mxCell id="n7Tfx3wBglvD5KZtqvA7-73" value="Control cambios Github" style="shape=hexagon;perimeter=hexagonPerimeter2;whiteSpace=wrap;html=1;fixedSize=1;" vertex="1" parent="WIyWlLk6GJQsqaUBKTNV-1">
          <mxGeometry x="690" y="410" width="120" height="60" as="geometry" />
        </mxCell>
        <mxCell id="n7Tfx3wBglvD5KZtqvA7-75" value="Automatizar Scripts" style="shape=hexagon;perimeter=hexagonPerimeter2;whiteSpace=wrap;html=1;fixedSize=1;" vertex="1" parent="WIyWlLk6GJQsqaUBKTNV-1">
          <mxGeometry x="800" y="530" width="120" height="60" as="geometry" />
        </mxCell>
        <mxCell id="n7Tfx3wBglvD5KZtqvA7-80" value="Sincronización Git y Github Desktop" style="ellipse;whiteSpace=wrap;html=1;" vertex="1" parent="WIyWlLk6GJQsqaUBKTNV-1">
          <mxGeometry x="-210" y="345" width="90" height="80" as="geometry" />
        </mxCell>
        <mxCell id="n7Tfx3wBglvD5KZtqvA7-83" value="" style="endArrow=classic;html=1;rounded=0;entryX=0.592;entryY=-0.04;entryDx=0;entryDy=0;exitX=0;exitY=0.5;exitDx=0;exitDy=0;entryPerimeter=0;" edge="1" parent="WIyWlLk6GJQsqaUBKTNV-1" source="n7Tfx3wBglvD5KZtqvA7-4" target="n7Tfx3wBglvD5KZtqvA7-80">
          <mxGeometry width="50" height="50" relative="1" as="geometry">
            <mxPoint x="110" y="500" as="sourcePoint" />
            <mxPoint x="160" y="450" as="targetPoint" />
            <Array as="points">
              <mxPoint x="-160" y="230" />
            </Array>
          </mxGeometry>
        </mxCell>
        <mxCell id="n7Tfx3wBglvD5KZtqvA7-84" value="" style="endArrow=classic;html=1;rounded=0;exitX=0;exitY=0.5;exitDx=0;exitDy=0;entryX=0.5;entryY=1;entryDx=0;entryDy=0;" edge="1" parent="WIyWlLk6GJQsqaUBKTNV-1" source="n7Tfx3wBglvD5KZtqvA7-16" target="n7Tfx3wBglvD5KZtqvA7-80">
          <mxGeometry width="50" height="50" relative="1" as="geometry">
            <mxPoint x="110" y="500" as="sourcePoint" />
            <mxPoint x="-160" y="520" as="targetPoint" />
            <Array as="points">
              <mxPoint x="-20" y="560" />
              <mxPoint x="-165" y="560" />
            </Array>
          </mxGeometry>
        </mxCell>
        <mxCell id="n7Tfx3wBglvD5KZtqvA7-85" value="" style="endArrow=classic;html=1;rounded=0;entryX=0.5;entryY=1;entryDx=0;entryDy=0;" edge="1" parent="WIyWlLk6GJQsqaUBKTNV-1" source="n7Tfx3wBglvD5KZtqvA7-18" target="n7Tfx3wBglvD5KZtqvA7-80">
          <mxGeometry width="50" height="50" relative="1" as="geometry">
            <mxPoint x="110" y="600" as="sourcePoint" />
            <mxPoint x="160" y="550" as="targetPoint" />
            <Array as="points">
              <mxPoint x="-165" y="740" />
            </Array>
          </mxGeometry>
        </mxCell>
        <mxCell id="n7Tfx3wBglvD5KZtqvA7-90" value="Documentación" style="shape=process;whiteSpace=wrap;html=1;backgroundOutline=1;" vertex="1" parent="WIyWlLk6GJQsqaUBKTNV-1">
          <mxGeometry x="827" y="740" width="110" height="20" as="geometry" />
        </mxCell>
        <mxCell id="n7Tfx3wBglvD5KZtqvA7-91" value="" style="endArrow=classic;html=1;rounded=0;exitX=0.5;exitY=1;exitDx=0;exitDy=0;entryX=0;entryY=0.5;entryDx=0;entryDy=0;" edge="1" parent="WIyWlLk6GJQsqaUBKTNV-1" source="n7Tfx3wBglvD5KZtqvA7-71" target="n7Tfx3wBglvD5KZtqvA7-90">
          <mxGeometry width="50" height="50" relative="1" as="geometry">
            <mxPoint x="750" y="785" as="sourcePoint" />
            <mxPoint x="800" y="735" as="targetPoint" />
            <Array as="points">
              <mxPoint x="767" y="750" />
            </Array>
          </mxGeometry>
        </mxCell>
      </root>
    </mxGraphModel>
  </diagram>
</mxfile>
